<?xml version="1.0" encoding="UTF-8" standalone="no"?>
<!DOCTYPE svg PUBLIC "-//W3C//DTD SVG 1.1//EN" "http://www.w3.org/Graphics/SVG/1.1/DTD/svg11.dtd">
<svg width="100%" height="100%" viewBox="0 0 3540 1314" version="1.1" xmlns="http://www.w3.org/2000/svg" xmlns:xlink="http://www.w3.org/1999/xlink" xml:space="preserve" xmlns:serif="http://www.serif.com/" style="fill-rule:evenodd;clip-rule:evenodd;stroke-linejoin:round;stroke-miterlimit:2;">
    <g transform="matrix(1,0,0,1,-480.403712,-1593.491822)">
        <g transform="matrix(4.166667,0,0,4.166667,0,0)">
            <g transform="matrix(1,0,0,1,251.9711,630.3076)">
                <path d="M0,-179.651C-5.735,-179.182 -11.508,-178.747 -17.363,-178.473C-35.62,-177.618 -63.708,-185.45 -80.694,-176.825C-91.766,-171.193 -91.497,-158.641 -91.411,-148.009C-91.341,-139.339 -90.296,-130.653 -90.506,-121.984C-90.716,-113.306 -92.777,-104.785 -93.014,-96.111C-93.509,-77.97 -81.627,-63.682 -62.578,-67.149C-25.026,-73.984 19.872,-102.821 55.113,-119.126C74.103,-127.911 104.588,-131.445 95.467,-162.746C90.775,-178.844 64.514,-180.406 51.174,-181.41C33.655,-182.729 16.992,-181.041 0,-179.651M140.111,45.673C134.595,51.188 105.645,51.122 100.194,45.673C95.643,41.122 95.009,13.241 92.272,4.195C84.968,-19.946 50.239,-54.433 25.23,-54.431C15.815,-54.431 -13.101,-41.054 -23.064,-37.35C-33.479,-33.478 -69.477,-18.156 -75.942,-11.845C-77.702,-10.127 -79.731,-8.67 -80.482,-6.163L-88.251,37.172C-90.743,50.155 -124.268,47.519 -128.308,42.385C-128.884,41.652 -131.992,27.014 -132.234,24.169C-134.797,-5.907 -131.122,-40.631 -131.936,-71.508C-132.929,-109.138 -139.082,-148.981 -135.636,-187.326C-132.713,-219.862 -124.72,-222.114 -96.399,-226.452C-80.973,-228.815 -81.873,-226.71 -69.178,-226.206C-19.616,-224.239 36.172,-230.839 84.505,-226.502C94.76,-225.581 114.465,-219.753 121.994,-212.869C127.43,-207.898 139.796,-189.239 142.427,-182.191C153.032,-153.782 141.778,-113.039 116.657,-95.293C109.939,-90.547 92.652,-87.096 92.729,-78.155C92.795,-70.542 119.204,-50.732 125.176,-42.315C135.535,-27.712 152.768,33.016 140.111,45.673" style="fill:rgb(255,59,39);fill-rule:nonzero;"/>
            </g>
        </g>
        <g transform="matrix(4.166667,0,0,4.166667,0,0)">
            <g transform="matrix(1,0,0,1,464.8835,675.5883)">
                <path d="M0,-266.932C4.23,-263.713 7.022,-256.849 9.527,-252.333C23.537,-227.075 32.998,-199.222 49.485,-175.351C51.316,-172.7 53.235,-170.109 55.27,-167.611C68.588,-151.267 71.843,-147.653 86.01,-164.211C95.338,-175.114 106.634,-200.435 113.834,-214.597C120.815,-228.327 132.664,-269.166 148.8,-271.445C155.501,-272.391 162.581,-272.067 169.328,-272.065C177.063,-272.064 186.769,-273.742 187.235,-262.876C187.387,-259.327 173.443,-241.991 170.331,-236.327C151.637,-202.3 95.542,-98.551 92.609,-65.824C91.26,-50.782 96.256,-12.906 91.135,-2.702C85.35,8.825 51.912,5.469 48.877,-4.834C44.728,-18.921 50.45,-51.438 48.447,-68.999C44.201,-106.223 -11.729,-189.253 -30.375,-228.203C-34.514,-236.85 -47.747,-257.418 -41.603,-267.56C-36.636,-275.757 -22.13,-272.943 -14.578,-271.398C-10.415,-270.546 -4.725,-269.794 -1.009,-267.612C-0.664,-267.409 -0.328,-267.181 0,-266.932" style="fill:rgb(255,59,39);fill-rule:nonzero;"/>
            </g>
        </g>
        <g transform="matrix(4.166667,0,0,4.166667,0,0)">
            <g transform="matrix(1,0,0,1,849.4888,449.7958)">
                <path d="M0,180.385C0.932,178.944 2.051,177.537 3.67,176.898C4.421,176.602 5.235,176.491 6.038,176.364C23.494,173.586 42.309,161.232 47.257,144.186C51.373,130.005 47.399,113.116 41.466,100.003C39.418,95.477 38.97,90.618 37.29,85.892C33.877,76.295 27.628,66.385 29.952,55.866C31.528,48.733 37.002,42.644 37.611,35.376C38.348,26.583 32.482,20.315 25.579,15.541C19.687,11.466 13.464,7.723 6.636,5.356C-0.191,2.989 -7.698,2.057 -14.76,3.663C-24.01,5.767 -32.022,12.379 -35.59,20.853C-39.158,29.328 -38.188,39.44 -33.067,47.143C-32.725,47.658 -32.359,48.17 -31.867,48.557C-30.451,49.673 -28.281,49.476 -26.722,48.553C-25.032,47.551 -24.115,45.823 -22.503,44.76C-21.042,43.797 -19.112,43.438 -17.517,42.741C-16.564,42.325 -15.581,41.747 -14.545,41.92C-13.527,42.089 -12.78,42.982 -12.563,43.927C-12.345,44.871 -12.563,45.855 -12.863,46.78C-13.908,49.996 -15.987,53.13 -15.454,56.454C-14.647,61.49 -7.402,63.767 -2.706,64.249C-0.769,64.448 1.228,64.283 3.104,64.756C6.495,65.613 8.789,68.342 10.727,70.951C18.221,81.038 24.101,91.9 28.582,103.258C31.795,111.401 33.879,119.574 32.817,128.351C31.432,139.796 24.67,150.667 15.039,158.113C11.103,161.157 6.78,162.778 2.172,164.581C-0.983,165.816 -5.98,167.505 -7.748,170.435C-8.498,171.676 -8.772,173.199 -9.804,174.236C-10.999,175.437 -12.93,175.672 -14.634,175.398C-16.339,175.123 -17.936,174.425 -19.614,174.023C-29.839,171.577 -34.954,181.214 -43.993,181.107C-58.097,180.94 -70.643,178.431 -83.839,173.798C-87.422,172.539 -91.272,171.464 -94.703,169.879C-100.751,167.084 -106.988,162.876 -113.036,160.081C-117.658,157.945 -121.339,155.379 -125.257,152.244C-149.765,132.626 -160.566,109.72 -157.534,78.86C-155.415,57.293 -149.994,35.666 -139.317,16.336C-111.664,-33.728 -39.85,-38.833 14.614,-6.478C69.077,25.878 74.703,82.6 68.254,113.053C61.804,143.505 60.441,193.128 0.245,208.354C-25.269,214.807 -53.388,219.3 -79.974,213.448C-105.566,207.815 -128.71,192.801 -148.343,177.717C-163.337,166.197 -187.504,156.846 -204.02,173.145C-209.993,179.039 -208.306,182.895 -207.249,190.954C-205.852,201.597 -200.2,211.989 -192.134,219.563C-184.75,226.496 -169.821,232.459 -177.29,216.391C-179.988,210.587 -189.071,198.624 -184.457,192.252C-176.774,181.64 -124.007,229.108 -114.847,233.948C-90.537,246.793 -60.623,246.39 -33.553,247.56C-12.122,248.486 10.229,246.59 28.872,235.785C62.464,216.316 102.493,191.461 113.067,115.012C116.81,87.951 116.317,63.104 106.277,37.285C97.121,13.741 82.757,-7.068 64.859,-26.073C53.47,-38.166 37.457,-49.602 21.404,-55.466C3.959,-61.837 -18.431,-68.101 -37.139,-67.286C-86.652,-65.13 -133.107,-64.289 -170.071,-14.969C-188.201,9.223 -196.159,38.418 -195.304,68.042C-194.691,89.302 -191.76,120.815 -177.544,137.99C-170.061,147.032 -159.597,156.37 -149.556,162.744C-139.272,169.273 -127.589,173.422 -117.053,179.544C-91.584,194.342 -58.179,202.862 -29.373,191.316C-25.886,189.919 -22.131,189.141 -18.355,189.033C-13.115,188.884 -7.269,189.637 -3.423,185.404C-2.152,184.006 -1.234,182.351 -0.238,180.76C-0.16,180.635 -0.081,180.51 0,180.385" style="fill:rgb(255,59,39);fill-rule:nonzero;"/>
            </g>
        </g>
        <g transform="matrix(4.166667,0,0,4.166667,0,0)">
            <g transform="matrix(1,0,0,1,859.1178,594.3787)">
                <path d="M0,-28.789C0.468,-26.969 0.575,-25.324 0.339,-23.449C-0.077,-20.134 -3.566,-8.386 -5.161,-5.314C-5.287,-5.07 -8.435,-1.09 -8.682,-0.934C-9.859,-0.19 -11.699,0 -13.116,-0.021C-13.51,-0.171 -15.612,-5.216 -15.701,-6.039C-16.157,-10.246 -7.508,-26.285 -3.201,-28.132C-2.185,-28.568 -1.083,-28.656 0,-28.789" style="fill:rgb(255,59,39);fill-rule:nonzero;"/>
            </g>
        </g>
        <g transform="matrix(4.166667,0,0,4.166667,0,0)">
            <g transform="matrix(1,0,0,1,801.9951,593.6289)">
                <path d="M0,-0.782C3.65,1.421 8.866,0.291 6.445,6.449C5.2,9.613 3.34,10.41 -0.236,9.881C-3.871,9.343 -21.162,2.025 -23.657,-0.27C-31.075,-7.094 -26.741,-11.192 -16.798,-9.562C-10.14,-8.471 -5.04,-3.824 0,-0.782" style="fill:rgb(255,59,39);fill-rule:nonzero;"/>
            </g>
        </g>
        <g transform="matrix(4.166667,0,0,4.166667,0,0)">
            <g transform="matrix(1,0,0,1,798.0261,544.6821)">
                <path d="M0,-75.62C-4.12,-89.657 -21.055,-89.835 -33.227,-87.133C-46.621,-84.158 -58.684,-78.661 -67.159,-68C-72.227,-61.624 -75.756,-54.178 -78.027,-46.479C-80.307,-38.749 -82.94,-29.451 -83.694,-21.4C-84.652,-14.26 -82.086,-6.395 -80.777,0.604C-80.387,2.688 -79.966,4.833 -78.768,6.61C-77.953,7.82 -76.819,8.793 -75.7,9.751C-74.222,11.015 -72.717,12.297 -70.929,13.109C-69.141,13.922 -66.997,14.215 -65.187,13.446C-65.007,11.378 -65.304,9.272 -66.052,7.324C-66.456,6.272 -66.991,5.261 -67.262,4.17C-67.496,3.232 -67.528,2.26 -67.556,1.296C-67.8,-7.229 -70.317,-23.805 -56.941,-24.099C-53.824,-24.167 -50.925,-22.619 -47.847,-22.14C-42.72,-21.341 -37.603,-23.565 -33.256,-26.297C-30.324,-28.138 -27.466,-30.359 -26.013,-33.423C-23.497,-38.726 -27.05,-42.792 -30.946,-46.121C-33.961,-48.697 -36.599,-53.148 -34.104,-56.196C-31.826,-58.981 -26.943,-57.984 -24.405,-55.415C-21.868,-52.846 -20.79,-49.285 -18.94,-46.221C-17.089,-43.156 -13.723,-40.331 -10.115,-41.047C-6.296,-41.806 -4.477,-45.927 -3.27,-49.495C-0.7,-57.089 1.902,-65.035 0.609,-72.924C0.453,-73.872 0.249,-74.77 0,-75.62" style="fill:rgb(255,59,39);fill-rule:nonzero;"/>
            </g>
        </g>
    </g>
</svg>
